<svg xmlns="http://www.w3.org/2000/svg" viewBox="0 0 364.91 501"><defs><style>.cls-1{fill:#c93030;}.cls-2{fill:#262323;}.cls-3{font-size:197px;font-family:Tahoma;}.cls-4{fill:none;stroke:#00028d;stroke-miterlimit:10;}</style></defs><title>casino7</title><g id="OBJECTS"><polygon class="cls-1" points="53.88 156.67 13.13 91.41 54.19 26.34 94.93 91.6 53.88 156.67"/><path class="cls-2" d="M287,87.57c0,33.52-26.51,51.08-26.51,51.08h53S287,121.34,287,87.57Z" transform="translate(0.5 0.5)"/><path class="cls-2" d="M333.84,86.38c-6-22.72-41.9-45.13-46.86-67.46v0c-5,22.33-40.87,44.74-46.86,67.46C231.33,119.62,279,130.22,287,98.27h0C294.92,130.22,342.61,119.62,333.84,86.38Z" transform="translate(0.5 0.5)"/><path class="cls-1" d="M74,386.28h0c-10.3-38.09-69.07-38.6-60.52,14.27,4.48,27.71,49,58.8,60.65,80.4h0c11.64-21.63,56-52.84,60.44-80.57C143,347.49,84.2,348.16,74,386.28Z" transform="translate(0.5 0.5)"/><path class="cls-2" d="M319.35,373.25c0,15.36-27.9,41.21-27.9,41.21s-27.75-26-27.72-41.33a27.81,27.81,0,0,1,55.62.12Z" transform="translate(0.5 0.5)"/><path class="cls-2" d="M263,393.9c15.36,0,41.21,27.9,41.21,27.9s-26,27.75-41.33,27.72A27.81,27.81,0,0,1,263,393.9Z" transform="translate(0.5 0.5)"/><path class="cls-2" d="M319.89,449.64c-15.36,0-41.21-27.89-41.21-27.89S304.65,394,320,394a27.81,27.81,0,1,1-.12,55.61Z" transform="translate(0.5 0.5)"/><path class="cls-2" d="M291.47,408.08c-.09,40.06-31.82,61-31.82,61l63.37.14S291.38,448.44,291.47,408.08Z" transform="translate(0.5 0.5)"/><text class="cls-3" transform="translate(135.89 324.16)">7</text><rect class="cls-4" x="0.5" y="0.5" width="363.91" height="500"/></g></svg>